<svg width="868" height="841" viewBox="0 0 868 841" fill="none" xmlns="http://www.w3.org/2000/svg">
<path fill-rule="evenodd" clip-rule="evenodd" d="M400.169 0.0865108C488.556 3.58826 512.594 120.567 587.143 164.226C669.995 212.747 807.633 185.278 852.944 265.25C897.125 343.225 834.743 439.348 785.848 514.923C744.233 579.246 677.752 627.479 601.451 653.976C537.111 676.319 464.917 627.528 400.169 648.855C272.112 691.036 182.45 880.903 56.6139 833.44C-55.2398 791.25 40.598 620.376 31.5887 509.832C25.3096 432.787 -21.4541 355.416 11.8715 284.45C44.3077 215.378 136.969 195.872 201.069 148.93C269.656 98.7014 312.456 -3.38854 400.169 0.0865108Z" fill="#352C97" fill-opacity="0.49"/>
</svg>
